<svg xmlns="http://www.w3.org/2000/svg" width="512" height="512" viewBox="0 0 512 512" version="1.1">
	<path d="M 226.162 2.032 C 215.971 4.702, 206 10.366, 198.958 17.486 C 191.916 24.604, 190.871 26.039, 186.905 34.033 L 183.884 40.122 179.692 37.734 C 151.057 21.421, 112.904 32.689, 97.600 61.978 C 90.662 75.258, 90.659 75.280, 90.237 119.480 L 89.855 159.461 71.643 177.980 C 46.827 203.216, 39.478 214.673, 33.231 237.866 C 30.729 247.156, 30.622 248.708, 30.237 281.306 C 29.914 308.629, 30.138 317.010, 31.406 325.015 C 34.148 342.330, 40.884 358.444, 50.915 371.684 C 57.769 380.732, 130.100 452.986, 140.503 461.177 C 153.632 471.514, 167.481 480.160, 183.500 488.017 C 215.243 503.587, 243.152 510.496, 279 511.659 C 334.385 513.455, 385.445 493.345, 424.395 454.395 C 453.523 425.267, 471.767 389.804, 479.643 347 C 481.226 338.402, 481.424 326.951, 481.733 226.363 C 482.107 104.302, 482.246 107.562, 476.112 94.760 C 469.222 80.382, 456.012 68.655, 440.889 63.493 C 433.743 61.054, 430.945 60.631, 422 60.635 C 410.492 60.641, 403.151 62.298, 394.543 66.832 C 391.769 68.293, 389.231 69.618, 388.903 69.777 C 388.575 69.935, 386.904 67.238, 385.190 63.782 C 381.626 56.596, 375.454 48.824, 369.178 43.621 C 359.995 36.007, 343.674 30.061, 331.838 30.017 C 323.944 29.988, 312.010 32.799, 304.837 36.377 L 297.998 39.789 294.293 32.644 C 289.586 23.567, 277.961 11.722, 269.314 7.192 C 256.069 0.253, 240.200 -1.645, 226.162 2.032 M 234.734 31.059 C 225.612 33.279, 217.935 39.438, 213.780 47.873 C 211.537 52.425, 211.492 53.213, 211 96.679 C 210.517 139.332, 210.429 140.953, 208.438 143.617 C 203.116 150.740, 194.902 152.575, 187.849 148.216 C 181.377 144.216, 181.072 142.679, 180.658 112 C 180.264 82.827, 179.944 80.604, 175.123 73.504 C 162.813 55.379, 135.456 56.730, 124.599 76 L 121.500 81.500 121 155.500 C 120.515 227.226, 120.439 229.604, 118.500 232.895 C 115.275 238.371, 111.635 240.500, 105.500 240.500 C 99.718 240.500, 96.379 238.724, 92.562 233.619 C 90.777 231.232, 90.433 228.969, 90 216.788 L 89.500 202.715 83 209.618 C 71.932 221.371, 66.743 230.451, 62.778 245 C 61.029 251.421, 60.668 256.386, 60.270 279.500 C 59.752 309.591, 60.609 320.573, 64.404 332.500 C 69.355 348.064, 71.026 350.102, 114.459 393.592 C 137.285 416.446, 158.060 436.360, 162.780 439.909 C 191.030 461.152, 221.166 473.819, 257 479.512 C 270.716 481.692, 299.087 481.783, 311.532 479.688 C 376.811 468.699, 427.706 423.204, 445.522 359.913 C 451.471 338.779, 451.332 341.734, 451.745 227.520 C 452.015 152.832, 451.801 120.680, 451.003 116.096 C 448.357 100.901, 438.150 91.869, 422.815 91.153 C 416.286 90.848, 414.316 91.166, 409.728 93.267 C 403.414 96.158, 397.902 101.338, 394.824 107.277 C 392.997 110.803, 392.535 113.821, 392.025 125.552 C 391.530 136.950, 391.042 140.255, 389.441 143.052 C 386.853 147.572, 379.279 151.464, 374.742 150.607 C 369.434 149.604, 365.032 146.286, 362.964 141.729 C 361.229 137.908, 361.042 134.971, 361.022 111.261 C 361.002 87.971, 360.787 84.461, 359.107 80.040 C 351.138 59.068, 323.683 53.929, 308.993 70.661 C 301.935 78.700, 301.629 80.310, 301.035 112.500 C 300.537 139.479, 300.361 141.686, 298.500 144.166 C 291.970 152.868, 280.282 152.611, 273.562 143.617 C 271.575 140.957, 271.480 139.275, 270.938 97.179 C 270.628 73.155, 269.991 52.375, 269.522 51 C 268.262 47.312, 264.449 41.511, 261.281 38.463 C 255.122 32.536, 242.794 29.098, 234.734 31.059" stroke="none" fill="black" fill-rule="evenodd"/>
</svg>